<svg version="1.1" viewBox="0.0 0.0 960.0 540.0" fill="none" stroke="none" stroke-linecap="square" stroke-miterlimit="10" xmlns:xlink="http://www.w3.org/1999/xlink" xmlns="http://www.w3.org/2000/svg"><clipPath id="p.0"><path d="m0 0l960.0 0l0 540.0l-960.0 0l0 -540.0z" clip-rule="nonzero"/></clipPath><g clip-path="url(#p.0)"><path fill="#000000" fill-opacity="0.0" d="m0 0l960.0 0l0 540.0l-960.0 0z" fill-rule="evenodd"/><path fill="#000000" d="m960.0 523.6547l-7.748047 15.496094l-18.614136 0l-7.748047 -15.496094l7.748047 -15.496033l18.614136 0z" fill-rule="evenodd"/><path fill="#999999" d="m593.7795 415.42545l-10.259888 20.519684l-23.826721 0l-10.259888 -20.519684l10.259888 -20.519684l23.826721 0z" fill-rule="evenodd"/><path fill="#000000" d="m960.0 487.57623l-7.748047 15.496033l-18.614136 0l-7.748047 -15.496033l7.748047 -15.496063l18.614136 0z" fill-rule="evenodd"/><path fill="#434343" d="m868.46515 469.10983l-7.748047 15.496063l-18.614197 0l-7.747986 -15.496063l7.747986 -15.496033l18.614197 0z" fill-rule="evenodd"/><path fill="#000000" d="m929.4845 469.95905l-7.747986 15.496063l-18.614197 0l-7.748047 -15.496063l7.748047 -15.496063l18.614197 0z" fill-rule="evenodd"/><path fill="#000000" d="m929.4845 433.88052l-7.747986 15.496063l-18.614197 0l-7.748047 -15.496063l7.748047 -15.496033l18.614197 0z" fill-rule="evenodd"/><path fill="#434343" d="m898.96906 451.78244l-7.748047 15.496063l-18.614197 0l-7.747986 -15.496063l7.747986 -15.496063l18.614197 0z" fill-rule="evenodd"/><path fill="#000000" d="m960.0 451.4977l-7.748047 15.496033l-18.614136 0l-7.748047 -15.496033l7.748047 -15.496063l18.614136 0z" fill-rule="evenodd"/><path fill="#000000" d="m960.0 415.9786l-7.748047 15.496063l-18.614136 0l-7.748047 -15.496063l7.748047 -15.496033l18.614136 0z" fill-rule="evenodd"/><path fill="#000000" d="m960.0 379.90012l-7.748047 15.496033l-18.614136 0l-7.748047 -15.496033l7.748047 -15.496063l18.614136 0z" fill-rule="evenodd"/><path fill="#000000" d="m929.4845 397.51727l-7.747986 15.496063l-18.614197 0l-7.748047 -15.496063l7.748047 -15.496063l18.614197 0z" fill-rule="evenodd"/><path fill="#434343" d="m898.96906 415.4192l-7.748047 15.496063l-18.614197 0l-7.747986 -15.496063l7.747986 -15.496063l18.614197 0z" fill-rule="evenodd"/><path fill="#434343" d="m837.94965 488.1407l-7.748047 15.496063l-18.614136 0l-7.748047 -15.496063l7.748047 -15.496063l18.614136 0z" fill-rule="evenodd"/><path fill="#434343" d="m837.94965 451.77744l-7.748047 15.496033l-18.614136 0l-7.748047 -15.496033l7.748047 -15.496063l18.614136 0z" fill-rule="evenodd"/><path fill="#000000" d="m960.0 343.8216l-7.748047 15.496063l-18.614136 0l-7.748047 -15.496063l7.748047 -15.496063l18.614136 0z" fill-rule="evenodd"/><path fill="#000000" d="m960.0 307.74307l-7.748047 15.496063l-18.614136 0l-7.748047 -15.496063l7.748047 -15.496063l18.614136 0z" fill-rule="evenodd"/><path fill="#000000" d="m929.4845 325.36023l-7.747986 15.496063l-18.614197 0l-7.748047 -15.496063l7.748047 -15.496033l18.614197 0z" fill-rule="evenodd"/><path fill="#434343" d="m807.4281 433.73932l-7.748047 15.496033l-18.614136 0l-7.748047 -15.496033l7.748047 -15.496063l18.614136 0z" fill-rule="evenodd"/><path fill="#434343" d="m868.46515 433.88306l-7.748047 15.496033l-18.614197 0l-7.747986 -15.496033l7.747986 -15.496063l18.614197 0z" fill-rule="evenodd"/><path fill="#434343" d="m868.46515 397.51978l-7.748047 15.496063l-18.614197 0l-7.747986 -15.496063l7.747986 -15.496033l18.614197 0z" fill-rule="evenodd"/><path fill="#000000" d="m837.94965 524.50397l-7.748047 15.496033l-18.614136 0l-7.748047 -15.496033l7.748047 -15.496094l18.614136 0z" fill-rule="evenodd"/><path fill="#000000" d="m868.46515 506.04593l-7.748047 15.496063l-18.614197 0l-7.747986 -15.496063l7.747986 -15.496033l18.614197 0z" fill-rule="evenodd"/><path fill="#434343" d="m837.93805 379.0509l-7.747986 15.496063l-18.614197 0l-7.748047 -15.496063l7.748047 -15.496063l18.614197 0z" fill-rule="evenodd"/><path fill="#434343" d="m837.93805 342.68765l-7.747986 15.496063l-18.614197 0l-7.748047 -15.496063l7.748047 -15.496063l18.614197 0z" fill-rule="evenodd"/><path fill="#434343" d="m837.93805 415.41415l-7.747986 15.496063l-18.614197 0l-7.748047 -15.496063l7.748047 -15.496033l18.614197 0z" fill-rule="evenodd"/><path fill="#434343" d="m807.44574 361.15652l-7.747986 15.496063l-18.614197 0l-7.748047 -15.496063l7.748047 -15.496063l18.614197 0z" fill-rule="evenodd"/><path fill="#434343" d="m807.44574 324.79327l-7.747986 15.496063l-18.614197 0l-7.748047 -15.496063l7.748047 -15.496063l18.614197 0z" fill-rule="evenodd"/><path fill="#434343" d="m807.44574 397.51978l-7.747986 15.496063l-18.614197 0l-7.748047 -15.496063l7.748047 -15.496033l18.614197 0z" fill-rule="evenodd"/><path fill="#434343" d="m776.9071 415.70142l-7.748047 15.496063l-18.614136 0l-7.748047 -15.496063l7.748047 -15.496063l18.614136 0z" fill-rule="evenodd"/><path fill="#434343" d="m776.9071 452.06467l-7.748047 15.496063l-18.614136 0l-7.748047 -15.496063l7.748047 -15.496033l18.614136 0z" fill-rule="evenodd"/><path fill="#666666" d="m746.3916 433.88052l-7.747986 15.496063l-18.614197 0l-7.748047 -15.496063l7.748047 -15.496033l18.614197 0z" fill-rule="evenodd"/><path fill="#666666" d="m715.86456 452.06384l-7.748047 15.496063l-18.614136 0l-7.748047 -15.496063l7.748047 -15.496063l18.614136 0z" fill-rule="evenodd"/><path fill="#666666" d="m715.8993 488.1407l-7.747986 15.496063l-18.614197 0l-7.748047 -15.496063l7.748047 -15.496063l18.614197 0z" fill-rule="evenodd"/><path fill="#666666" d="m746.3916 469.10983l-7.747986 15.496063l-18.614197 0l-7.748047 -15.496063l7.748047 -15.496033l18.614197 0z" fill-rule="evenodd"/><path fill="#666666" d="m746.3916 361.71848l-7.747986 15.496063l-18.614197 0l-7.748047 -15.496063l7.748047 -15.496063l18.614197 0z" fill-rule="evenodd"/><path fill="#666666" d="m715.86456 379.9018l-7.748047 15.496033l-18.614136 0l-7.748047 -15.496033l7.748047 -15.496063l18.614136 0z" fill-rule="evenodd"/><path fill="#666666" d="m715.8993 415.9786l-7.747986 15.496063l-18.614197 0l-7.748047 -15.496063l7.748047 -15.496033l18.614197 0z" fill-rule="evenodd"/><path fill="#666666" d="m746.3916 396.94778l-7.747986 15.496063l-18.614197 0l-7.748047 -15.496063l7.748047 -15.496063l18.614197 0z" fill-rule="evenodd"/><path fill="#666666" d="m685.3499 434.17114l-7.748047 15.496063l-18.614197 0l-7.747986 -15.496063l7.747986 -15.496063l18.614197 0z" fill-rule="evenodd"/><path fill="#666666" d="m685.3499 470.5344l-7.748047 15.496063l-18.614197 0l-7.747986 -15.496063l7.747986 -15.496063l18.614197 0z" fill-rule="evenodd"/><path fill="#666666" d="m654.8344 452.35025l-7.748047 15.496063l-18.614136 0l-7.748047 -15.496063l7.748047 -15.496063l18.614136 0z" fill-rule="evenodd"/><path fill="#666666" d="m624.3074 470.53357l-7.748047 15.496033l-18.614197 0l-7.747986 -15.496033l7.747986 -15.496063l18.614197 0z" fill-rule="evenodd"/><path fill="#666666" d="m654.8344 487.57956l-7.748047 15.496063l-18.614136 0l-7.748047 -15.496063l7.748047 -15.496033l18.614136 0z" fill-rule="evenodd"/><path fill="#666666" d="m624.3421 434.44833l-7.748047 15.496063l-18.614136 0l-7.748047 -15.496063l7.748047 -15.496033l18.614136 0z" fill-rule="evenodd"/><path fill="#666666" d="m654.8344 415.4175l-7.748047 15.496063l-18.614136 0l-7.748047 -15.496063l7.748047 -15.496063l18.614136 0z" fill-rule="evenodd"/><path fill="#999999" d="m685.3383 325.07632l-7.748047 15.496063l-18.614136 0l-7.748047 -15.496063l7.748047 -15.496033l18.614136 0z" fill-rule="evenodd"/><path fill="#999999" d="m685.3383 361.4396l-7.748047 15.496033l-18.614136 0l-7.748047 -15.496033l7.748047 -15.496063l18.614136 0z" fill-rule="evenodd"/><path fill="#999999" d="m654.8228 343.25546l-7.747986 15.496033l-18.614197 0l-7.748047 -15.496033l7.748047 -15.496063l18.614197 0z" fill-rule="evenodd"/><path fill="#999999" d="m624.2958 361.43875l-7.748047 15.496063l-18.614136 0l-7.748047 -15.496063l7.748047 -15.496063l18.614136 0z" fill-rule="evenodd"/><path fill="#666666" d="m654.8228 378.48477l-7.747986 15.496063l-18.614197 0l-7.748047 -15.496063l7.748047 -15.496063l18.614197 0z" fill-rule="evenodd"/><path fill="#999999" d="m624.3305 325.35355l-7.747986 15.496063l-18.614197 0l-7.748047 -15.496063l7.748047 -15.496063l18.614197 0z" fill-rule="evenodd"/><path fill="#999999" d="m654.8228 306.32272l-7.747986 15.496033l-18.614197 0l-7.748047 -15.496033l7.748047 -15.496063l18.614197 0z" fill-rule="evenodd"/><path fill="#999999" d="m555.6347 439.49454l-10.259827 20.519684l-23.826782 0l-10.259857 -20.519684l10.259857 -20.519653l23.826782 0z" fill-rule="evenodd"/><path fill="#999999" d="m555.6347 391.92416l-10.259827 20.519684l-23.826782 0l-10.259857 -20.519684l10.259857 -20.519684l23.826782 0z" fill-rule="evenodd"/><path fill="#999999" d="m517.00006 415.42545l-10.259827 20.519684l-23.826782 0l-10.259857 -20.519684l10.259857 -20.519684l23.826782 0z" fill-rule="evenodd"/><path fill="#999999" d="m517.00006 464.0862l-10.259827 20.519684l-23.826782 0l-10.259857 -20.519684l10.259857 -20.519653l23.826782 0z" fill-rule="evenodd"/><path fill="#b7b7b7" d="m517.00006 366.76468l-10.259827 20.519684l-23.826782 0l-10.259857 -20.519684l10.259857 -20.519684l23.826782 0z" fill-rule="evenodd"/><path fill="#b7b7b7" d="m517.00006 319.76212l-10.259827 20.519684l-23.826782 0l-10.259857 -20.519684l10.259857 -20.519684l23.826782 0z" fill-rule="evenodd"/><path fill="#b7b7b7" d="m555.6347 344.3538l-10.259827 20.519684l-23.826782 0l-10.259857 -20.519684l10.259857 -20.519684l23.826782 0z" fill-rule="evenodd"/><path fill="#b7b7b7" d="m593.7803 342.83505l-7.748047 15.496033l-18.614136 0l-7.748047 -15.496033l7.748047 -15.496063l18.614136 0z" fill-rule="evenodd"/><path fill="#b7b7b7" d="m593.81506 306.74982l-7.748047 15.496063l-18.614197 0l-7.747986 -15.496063l7.747986 -15.496063l18.614197 0z" fill-rule="evenodd"/><path fill="#999999" d="m685.3383 288.43503l-7.748047 15.496063l-18.614136 0l-7.748047 -15.496063l7.748047 -15.496033l18.614136 0z" fill-rule="evenodd"/><path fill="#999999" d="m624.3305 288.71225l-7.747986 15.496063l-18.614197 0l-7.748047 -15.496063l7.748047 -15.496063l18.614197 0z" fill-rule="evenodd"/><path fill="#999999" d="m654.8228 269.6814l-7.747986 15.496063l-18.614197 0l-7.748047 -15.496063l7.748047 -15.496048l18.614197 0z" fill-rule="evenodd"/><path fill="#b7b7b7" d="m593.81506 270.10852l-7.748047 15.496063l-18.614197 0l-7.747986 -15.496063l7.747986 -15.496048l18.614197 0z" fill-rule="evenodd"/><path fill="#434343" d="m837.9157 306.04718l-7.747986 15.496063l-18.614197 0l-7.748047 -15.496063l7.748047 -15.496063l18.614197 0z" fill-rule="evenodd"/><path fill="#434343" d="m776.90796 306.3244l-7.748047 15.496033l-18.614197 0l-7.748047 -15.496033l7.748047 -15.496063l18.614197 0z" fill-rule="evenodd"/><path fill="#434343" d="m807.40027 287.29355l-7.748047 15.496063l-18.614197 0l-7.747986 -15.496063l7.747986 -15.496063l18.614197 0z" fill-rule="evenodd"/><path fill="#666666" d="m746.39246 287.72067l-7.748047 15.496063l-18.614136 0l-7.748047 -15.496063l7.748047 -15.496063l18.614136 0z" fill-rule="evenodd"/><path fill="#434343" d="m776.90796 269.11276l-7.748047 15.496063l-18.614197 0l-7.748047 -15.496063l7.748047 -15.496048l18.614197 0z" fill-rule="evenodd"/><path fill="#999999" d="m715.90015 269.38998l-7.748047 15.496033l-18.614136 0l-7.748047 -15.496033l7.748047 -15.4960785l18.614136 0z" fill-rule="evenodd"/><path fill="#666666" d="m746.39246 250.35913l-7.748047 15.496063l-18.614136 0l-7.748047 -15.496063l7.748047 -15.496048l18.614136 0z" fill-rule="evenodd"/><path fill="#999999" d="m685.38464 250.78625l-7.748047 15.496063l-18.614136 0l-7.748047 -15.496063l7.748047 -15.496063l18.614136 0z" fill-rule="evenodd"/><path fill="#999999" d="m624.3305 251.7929l-7.747986 15.496048l-18.614197 0l-7.748047 -15.496048l7.748047 -15.496048l18.614197 0z" fill-rule="evenodd"/><path fill="#999999" d="m654.89233 232.89774l-7.748047 15.496063l-18.614136 0l-7.748047 -15.496063l7.748047 -15.496048l18.614136 0z" fill-rule="evenodd"/><path fill="#b7b7b7" d="m563.27637 254.23666l-7.747986 15.496063l-18.614197 0l-7.748047 -15.496063l7.748047 -15.496063l18.614197 0z" fill-rule="evenodd"/><path fill="#b7b7b7" d="m533.03064 238.13867l-7.747986 15.496048l-18.614197 0l-7.7480164 -15.496048l7.7480164 -15.496063l18.614197 0z" fill-rule="evenodd"/><path fill="#000000" d="m959.92957 271.66605l-7.747986 15.496033l-18.614197 0l-7.748047 -15.496033l7.748047 -15.496063l18.614197 0z" fill-rule="evenodd"/><path fill="#000000" d="m959.92957 235.58752l-7.747986 15.496048l-18.614197 0l-7.748047 -15.496048l7.748047 -15.496063l18.614197 0z" fill-rule="evenodd"/><path fill="#000000" d="m929.4141 253.20468l-7.748047 15.496063l-18.614197 0l-7.747986 -15.496063l7.747986 -15.496048l18.614197 0z" fill-rule="evenodd"/><path fill="#434343" d="m776.90094 379.33673l-7.747986 15.496063l-18.614197 0l-7.748047 -15.496063l7.748047 -15.496063l18.614197 0z" fill-rule="evenodd"/><path fill="#000000" d="m898.9574 342.68863l-7.747986 15.496063l-18.614197 0l-7.748047 -15.496063l7.748047 -15.496063l18.614197 0z" fill-rule="evenodd"/><path fill="#000000" d="m898.9574 306.6101l-7.747986 15.496063l-18.614197 0l-7.748047 -15.496063l7.748047 -15.496063l18.614197 0z" fill-rule="evenodd"/><path fill="#000000" d="m868.44196 324.22726l-7.748047 15.496063l-18.614197 0l-7.747986 -15.496063l7.747986 -15.496033l18.614197 0z" fill-rule="evenodd"/><path fill="#000000" d="m898.887 270.53308l-7.748047 15.496033l-18.614136 0l-7.748047 -15.496033l7.748047 -15.496063l18.614136 0z" fill-rule="evenodd"/><path fill="#000000" d="m898.887 234.45456l-7.748047 15.496048l-18.614136 0l-7.748047 -15.496048l7.748047 -15.496063l18.614136 0z" fill-rule="evenodd"/><path fill="#000000" d="m868.3715 252.07172l-7.748047 15.496063l-18.614136 0l-7.748047 -15.496063l7.748047 -15.496048l18.614136 0z" fill-rule="evenodd"/><path fill="#000000" d="m929.4376 289.28278l-7.747986 15.496063l-18.614197 0l-7.748047 -15.496063l7.748047 -15.496033l18.614197 0z" fill-rule="evenodd"/><path fill="#000000" d="m929.4835 361.44016l-7.748047 15.496063l-18.614136 0l-7.748047 -15.496063l7.748047 -15.496063l18.614136 0z" fill-rule="evenodd"/><path fill="#000000" d="m960.0 199.50948l-7.748047 15.496063l-18.614136 0l-7.748047 -15.496063l7.748047 -15.496048l18.614136 0z" fill-rule="evenodd"/><path fill="#000000" d="m929.4845 217.12665l-7.747986 15.496048l-18.614197 0l-7.748047 -15.496048l7.748047 -15.496063l18.614197 0z" fill-rule="evenodd"/><path fill="#000000" d="m959.92957 163.43243l-7.747986 15.496063l-18.614197 0l-7.748047 -15.496063l7.748047 -15.496048l18.614197 0z" fill-rule="evenodd"/><path fill="#000000" d="m959.92957 127.35392l-7.747986 15.496056l-18.614197 0l-7.748047 -15.496056l7.748047 -15.496056l18.614197 0z" fill-rule="evenodd"/><path fill="#000000" d="m929.4141 144.9711l-7.748047 15.496048l-18.614197 0l-7.747986 -15.496048l7.747986 -15.496063l18.614197 0z" fill-rule="evenodd"/><path fill="#000000" d="m898.9574 198.37651l-7.747986 15.496063l-18.614197 0l-7.748047 -15.496063l7.748047 -15.496048l18.614197 0z" fill-rule="evenodd"/><path fill="#000000" d="m868.44196 215.99368l-7.748047 15.496048l-18.614197 0l-7.747986 -15.496048l7.747986 -15.496063l18.614197 0z" fill-rule="evenodd"/><path fill="#000000" d="m898.887 162.29947l-7.748047 15.496063l-18.614136 0l-7.748047 -15.496063l7.748047 -15.496048l18.614136 0z" fill-rule="evenodd"/><path fill="#000000" d="m898.887 126.22096l-7.748047 15.496048l-18.614136 0l-7.748047 -15.496048l7.748047 -15.496063l18.614136 0z" fill-rule="evenodd"/><path fill="#000000" d="m868.3715 143.83813l-7.748047 15.496048l-18.614136 0l-7.748047 -15.496048l7.748047 -15.496063l18.614136 0z" fill-rule="evenodd"/><path fill="#000000" d="m929.4376 181.0492l-7.747986 15.496063l-18.614197 0l-7.748047 -15.496063l7.748047 -15.496063l18.614197 0z" fill-rule="evenodd"/><path fill="#434343" d="m837.80664 233.04524l-7.748047 15.496048l-18.614136 0l-7.748047 -15.496048l7.748047 -15.496063l18.614136 0z" fill-rule="evenodd"/><path fill="#434343" d="m807.2688 214.57635l-7.747986 15.496063l-18.614197 0l-7.748047 -15.496063l7.748047 -15.496063l18.614197 0z" fill-rule="evenodd"/><path fill="#434343" d="m837.76117 195.54552l-7.748047 15.496063l-18.614197 0l-7.748047 -15.496063l7.748047 -15.496048l18.614197 0z" fill-rule="evenodd"/><path fill="#666666" d="m776.75336 195.97264l-7.748047 15.496048l-18.614197 0l-7.747986 -15.496048l7.747986 -15.496063l18.614197 0z" fill-rule="evenodd"/><path fill="#434343" d="m807.2688 177.36473l-7.747986 15.496063l-18.614197 0l-7.748047 -15.496063l7.748047 -15.496048l18.614197 0z" fill-rule="evenodd"/><path fill="#666666" d="m776.75336 158.6111l-7.748047 15.496063l-18.614197 0l-7.747986 -15.496063l7.747986 -15.496048l18.614197 0z" fill-rule="evenodd"/></g></svg>