<?xml version="1.0" encoding="UTF-8"?>
<svg id="Layer_1" data-name="Layer 1" xmlns="http://www.w3.org/2000/svg" viewBox="0 0 1564.36 871.29">
  <defs>
    <style>
      .cls-1 {
        fill: #fcf;
      }
    </style>
  </defs>
  <path class="cls-1" d="m1082.88,37.42c-6.68,11.02-11.71,23.42-11.92,36.46-.37,23.32,15.12,42.94,32.34,56.99,20.06,16.36,44.35,30.51,70.79,31.2,12.91.34,25.72-1.69,38.56-2.65,12.57-.94,25.02-.39,37.37,2.27,24.04,5.17,46.29,17.18,64.95,33.05,20.57,17.5,35.47,39.35,48.16,63.01,5.52,10.29,10.78,20.69,16.25,30.96,3.4,6.38,5.33,12.4,7.15,19.4.03.11.3,1.12.34,1.23,18.17,49.82,60.99,89.6,112.27,103.45,11.52,3.11,24.39,5.02,35.87.72,9.13-3.41,16.6-10.01,21.84-18.15,5.16-8.01,8-17.8,7.44-27.35-.71-12.26-7.46-22.4-16.02-30.81-10.99-10.79-23.32-20.22-34.55-30.78-11.45-10.76-22.48-21.96-33.05-33.58-17.14-18.84-38.05-43.71-29.48-71.2,4.17-13.38,17.15-20.94,23.04-33.33,4.65-9.77,4.25-20.97.76-31.04-8.27-23.89-30.68-41.98-53.41-51.39-26.31-10.9-54.87-7.91-82.39-12.91-27.03-4.91-52.88-14.58-77.81-25.94-12.45-5.67-24.7-11.77-36.89-17.98-12.73-6.49-25.3-13.41-38.47-19.01-23.11-9.82-50.45-15.21-73.82-3.05-12.75,6.63-22.02,18.33-29.34,30.41Z"/>
  <path class="cls-1" d="m241.06,870.55c16.96,1.17,33.96,1.16,47.56-1.55,24.32-4.86,31.51-17.35,31.5-29.57-.01-14.23-5.85-30.23-27.36-44.46-10.5-6.95-23.35-13.33-35.13-19.96-11.53-6.49-21.42-13.24-29.06-20.39-14.87-13.92-21.22-28.38-20.55-41.75.73-14.75,10.71-27.42,24.4-39.3,5.96-5.17,12.25-10.22,18.22-15.36,3.71-3.19,8.29-5.52,13.96-8.01.09-.04.9-.4.98-.45,36.02-20.47,41-51.89,12.17-82.21-6.48-6.81-15.33-14.07-29.4-19.26-11.18-4.12-24.26-6.67-37.04-7.7-12.58-1.01-25.05-.4-34.41,1.96-12.02,3.04-16.8,8.82-18.26,15.2-1.87,8.19-1.22,16.8-2.65,25.07-1.45,8.43-3.72,16.73-6.8,24.88-4.99,13.21-13.03,29.74-48.54,31.13-17.28.68-35.97-4.6-53.68-5.05-13.97-.36-25.16,2.28-32.6,6.32-17.65,9.58-17.43,25.43-8.03,39.58,10.89,16.37,37.97,30.94,55.94,46.67,17.65,15.46,29.42,31.32,38.68,47.06,4.62,7.86,8.64,15.7,12.48,23.54,4.01,8.19,7.45,16.38,12.75,24.6,9.31,14.44,26.73,30.16,58.9,39.98,17.54,5.35,37.38,7.76,55.97,9.04Z"/>
</svg>