<?xml version="1.0" encoding="UTF-8"?>
<svg id="Layer_1" data-name="Layer 1" xmlns="http://www.w3.org/2000/svg" viewBox="0 0 899.28 387.92">
  <defs>
    <style>
      .cls-1 {
        fill: #fcf;
      }
    </style>
  </defs>
  <path class="cls-1" d="m895.6,83.23c-3.9-19.11-11.05-38.06-24.23-52.76C847.82,4.18,810.45-1.71,776.88.39c-39.1,2.44-80.64,11.67-110.71,38.07-14.69,12.89-26.83,28.31-40.12,42.57-13.01,13.96-27.4,26.14-43.85,35.87-32.02,18.95-69.08,28.48-106.12,30.02-40.84,1.7-79.85-7.27-118.25-20.52-16.7-5.76-33.24-11.92-49.87-17.7-10.34-3.59-18.66-8.3-27.88-14.2-.15-.1-1.48-.93-1.65-1.02-71.39-36.68-159.83-36.88-231.05.43-16,8.38-32.25,19.49-40.6,36.06C.14,143.14-1.38,158.16,1.16,172.58c2.5,14.2,9.4,27.99,19.83,38.03,13.39,12.88,31.31,17.23,49.45,17.77,23.29.7,46.69-1.5,70.01-1.31,23.77.19,47.54,1.3,71.22,3.35,38.4,3.32,87.2,9.46,105.92,48.82,9.11,19.15,2.47,40.89,8.65,60.7,4.88,15.64,16.83,27.67,31.05,35.27,33.73,18.04,77.22,15.11,112.14,2.22,40.43-14.92,69.09-47.6,104.8-70.32,35.07-22.31,73.74-38.14,113.1-51.14,19.66-6.49,39.53-12.31,59.46-17.93,20.82-5.87,41.9-11.1,62.27-18.41,35.77-12.83,71.69-34.94,85.16-72.47,7.35-20.47,5.63-43,1.35-63.94Z"/>
</svg>