<?xml version="1.0" encoding="UTF-8"?>
<svg xmlns="http://www.w3.org/2000/svg" viewBox="0 0 1489.72 1028.86">
  <defs>
    <style>
      .cls-1 {
        fill: #555;
      }

      .cls-2 {
        fill: #fff;
      }

      .cls-3 {
        fill: #fcf;
      }

      .cls-4 {
        fill: gray;
      }

      .cls-5 {
        fill: #d4d4d4;
      }

      .cls-6 {
        fill: #2b2b2b;
      }

      .cls-7 {
        fill: #aaa;
      }
    </style>
  </defs>
  <g id="Layer_2" data-name="Layer 2">
    <path class="cls-3" d="m1477.38,186.87c-15.46-57.05-46.57-111.93-95.56-146.91-55.46-39.6-126.12-43.55-190.54-26.47-69.92,18.54-130.82,58.93-186.42,103.69-58.5,47.1-111.88,100.13-170.91,146.6-55.88,43.99-118.14,83.05-187.76,101.17-34.26,8.92-69.01,9.97-104.06,13.29-32.58,3.09-65.62,9.53-91.97,30.04-46.6,36.28-56.3,99.29-76.87,150.89-10.6,26.58-25.22,50.7-45.64,70.99-19.43,19.31-42.39,34.6-66.28,47.91-50.21,27.98-104.72,47.67-154.01,77.35-24.24,14.59-47.33,31.71-66.36,52.68-16.97,18.72-30.75,40.12-40.98,63.11-.17,6.85.71,13.83,2.63,20.79,5.73,20.8,18.3,39.49,32.22,55.77,15.44,18.07,33.33,34.19,52.41,48.39,5.03,3.74,10.16,7.36,15.39,10.86,21.24,8.16,36.36,18.16,58.74,21.15,18.56,2.48,45.37-3.01,63.83.32,70.45.54,139.67-11.61,203.12-47.62,32.21-18.28,67.03-22.63,104.35-30.38,37.42-7.78,69.32-21.53,105.38-10.95,37.53,11.01,54.21-29.33,90.33-44.54,36.91-15.54,88.58-24.16,88.58-24.16,0,0,64.5-12.03,97-3,41.95,11.66,78.73,59,143,69,59.29,9.23,127.35-18.71,184-40,62.29-23.4,98.19,57.63,158,27,54.54-27.93,28.87-251.8,43.33-308.45,7.72-30.22,12.41-61.1,17.17-91.88,6.09-39.42,13.53-78.62,19.58-118.05,11.09-72.21,17.64-147.19-1.71-218.62Z"/>
  </g>
  <g id="Layer_1" data-name="Layer 1">
    <polygon points="1326.31 196.73 1286.87 196.73 1267.15 230.88 1286.87 265.03 1326.31 265.03 1346.02 230.88 1326.31 196.73"/>
    <g>
      <polygon class="cls-2" points="558.17 675.21 497.31 675.21 466.88 727.92 497.31 780.63 558.17 780.63 588.6 727.92 558.17 675.21"/>
      <polygon class="cls-2" points="654.73 730.22 593.87 730.22 563.44 782.93 593.87 835.64 654.73 835.64 685.17 782.93 654.73 730.22"/>
      <polygon class="cls-2" points="461.61 620.2 400.75 620.2 370.32 672.91 400.75 725.62 461.61 725.62 492.04 672.91 461.61 620.2"/>
      <polygon class="cls-2" points="654.73 507.25 593.87 507.25 563.44 559.96 593.87 612.67 654.73 612.67 685.17 559.96 654.73 507.25"/>
      <polygon class="cls-2" points="751.88 563.43 691.02 563.43 660.59 616.14 691.02 668.85 751.88 668.85 782.31 616.14 751.88 563.43"/>
      <polygon class="cls-2" points="751.88 675.21 691.02 675.21 660.59 727.92 691.02 780.63 751.88 780.63 782.31 727.92 751.88 675.21"/>
      <polygon class="cls-2" points="461.61 842.31 400.75 842.31 370.32 895.02 400.75 947.73 461.61 947.73 492.04 895.02 461.61 842.31"/>
      <polygon class="cls-2" points="558.17 785.82 497.31 785.82 466.88 838.53 497.31 891.24 558.17 891.24 588.6 838.53 558.17 785.82"/>
      <polygon class="cls-2" points="655.32 842 594.46 842 564.03 894.71 594.46 947.42 655.32 947.42 685.75 894.71 655.32 842"/>
      <polygon class="cls-2" points="461.61 730.22 400.75 730.22 370.32 782.93 400.75 835.64 461.61 835.64 492.04 782.93 461.61 730.22"/>
      <polygon class="cls-2" points="364.46 785.82 303.6 785.82 273.17 838.53 303.6 891.24 364.46 891.24 394.89 838.53 364.46 785.82"/>
      <polygon class="cls-2" points="364.46 897.91 303.6 897.91 273.17 950.62 303.6 1003.33 364.46 1003.33 394.89 950.62 364.46 897.91"/>
      <polygon class="cls-2" points="267.32 842.31 206.45 842.31 176.02 895.02 206.45 947.73 267.32 947.73 297.75 895.02 267.32 842.31"/>
    </g>
    <polygon class="cls-2" points="836.15 676.82 805.72 729.53 836.15 782.24 897.02 782.24 927.45 729.53 897.02 676.82 836.15 676.82"/>
    <polygon class="cls-5" points="1016.31 698.16 987.67 747.77 1016.31 797.39 1073.61 797.39 1102.25 747.77 1073.61 698.16 1016.31 698.16"/>
    <polygon class="cls-5" points="924.54 648.54 895.89 698.16 924.54 747.77 981.83 747.77 1010.48 698.16 981.83 648.54 924.54 648.54"/>
    <polygon class="cls-5" points="924.54 541.1 895.89 590.72 924.54 640.33 981.83 640.33 1010.48 590.72 981.83 541.1 924.54 541.1"/>
    <polygon class="cls-5" points="828.54 702.26 799.89 751.88 828.54 801.49 885.83 801.49 914.48 751.88 885.83 702.26 828.54 702.26"/>
    <polygon class="cls-5" points="828.54 594.82 799.89 644.44 828.54 694.05 885.83 694.05 914.48 644.44 885.83 594.82 828.54 594.82"/>
    <polygon class="cls-5" points="828.54 484.43 799.89 534.04 828.54 583.66 885.83 583.66 914.48 534.04 885.83 484.43 828.54 484.43"/>
    <polygon class="cls-5" points="731.89 541.1 703.24 590.72 731.89 640.33 789.18 640.33 817.83 590.72 789.18 541.1 731.89 541.1"/>
    <polygon class="cls-7" points="1092.39 460.37 1065.53 506.89 1092.39 553.41 1146.11 553.41 1172.97 506.89 1146.11 460.37 1092.39 460.37"/>
    <polygon class="cls-7" points="1094.11 563.91 1067.25 610.43 1094.11 656.95 1147.83 656.95 1174.69 610.43 1147.83 563.91 1094.11 563.91"/>
    <polygon class="cls-7" points="1002.47 407.91 975.61 454.43 1002.47 500.95 1056.19 500.95 1083.05 454.43 1056.19 407.91 1002.47 407.91"/>
    <polygon class="cls-7" points="914.8 460.73 887.94 507.25 914.8 553.77 968.52 553.77 995.38 507.25 968.52 460.73 914.8 460.73"/>
    <polygon class="cls-4" points="1283.59 393.46 1233.44 393.46 1208.37 436.89 1233.44 480.32 1283.59 480.32 1308.67 436.89 1283.59 393.46"/>
    <polygon class="cls-4" points="1283.59 486.51 1233.44 486.51 1208.37 529.94 1233.44 573.37 1283.59 573.37 1308.67 529.94 1283.59 486.51"/>
    <polygon class="cls-4" points="1366.26 441.08 1316.11 441.08 1291.03 484.51 1316.11 527.94 1366.26 527.94 1391.33 484.51 1366.26 441.08"/>
    <polygon class="cls-4" points="1365.26 536.04 1315.11 536.04 1290.03 579.47 1315.11 622.9 1365.26 622.9 1390.33 579.47 1365.26 536.04"/>
    <polygon class="cls-4" points="1366.26 630.09 1316.11 630.09 1291.03 673.52 1316.11 716.95 1366.26 716.95 1391.33 673.52 1366.26 630.09"/>
    <polygon class="cls-4" points="1283.59 583.56 1233.44 583.56 1208.37 626.99 1233.44 670.42 1283.59 670.42 1308.67 626.99 1283.59 583.56"/>
    <polygon class="cls-4" points="1199.76 633.39 1149.61 633.39 1124.54 676.82 1149.61 720.25 1199.76 720.25 1224.84 676.82 1199.76 633.39"/>
    <polygon class="cls-4" points="1284.59 679.08 1234.44 679.08 1209.37 722.51 1234.44 765.94 1284.59 765.94 1309.67 722.51 1284.59 679.08"/>
    <polygon class="cls-4" points="1448.92 584.66 1398.78 584.66 1373.7 628.09 1398.78 671.52 1448.92 671.52 1474 628.09 1448.92 584.66"/>
    <polygon class="cls-1" points="1144.26 339.8 1167.54 299.46 1144.26 259.13 1097.68 259.13 1074.39 299.46 1097.68 339.8 1144.26 339.8"/>
    <polygon class="cls-1" points="1068.25 384.45 1091.54 344.12 1068.25 303.78 1021.67 303.78 998.38 344.12 1021.67 384.45 1068.25 384.45"/>
    <polygon class="cls-1" points="1221.8 383.14 1245.09 342.8 1221.8 302.46 1175.22 302.46 1151.94 342.8 1175.22 383.14 1221.8 383.14"/>
    <polygon class="cls-1" points="1144.26 428.79 1167.54 388.45 1144.26 348.12 1097.68 348.12 1074.39 388.45 1097.68 428.79 1144.26 428.79"/>
    <polygon class="cls-1" points="1143.48 516.38 1166.77 476.04 1143.48 435.71 1096.91 435.71 1073.62 476.04 1096.91 516.38 1143.48 516.38"/>
    <polygon class="cls-1" points="1221.8 472.59 1245.09 432.25 1221.8 391.91 1175.22 391.91 1151.94 432.25 1175.22 472.59 1221.8 472.59"/>
    <polygon class="cls-1" points="1067.48 472.74 1090.77 432.41 1067.48 392.07 1020.9 392.07 997.61 432.41 1020.9 472.74 1067.48 472.74"/>
    <polygon class="cls-1" points="990.19 428.79 1013.48 388.45 990.19 348.12 943.61 348.12 920.32 388.45 943.61 428.79 990.19 428.79"/>
    <polygon class="cls-6" points="1162.51 213.57 1141 176.32 1098 176.32 1076.5 213.57 1098 250.81 1141 250.81 1162.51 213.57"/>
    <polygon class="cls-6" points="1233.49 171.15 1211.99 133.9 1168.98 133.9 1147.48 171.15 1168.98 208.39 1211.99 208.39 1233.49 171.15"/>
    <polygon class="cls-6" points="1303.75 213.57 1282.25 176.32 1239.24 176.32 1217.74 213.57 1239.24 250.81 1282.25 250.81 1303.75 213.57"/>
    <polygon class="cls-6" points="1233.49 250.81 1211.99 213.57 1168.98 213.57 1147.48 250.81 1168.98 288.06 1211.99 288.06 1233.49 250.81"/>
    <polygon points="1258.1 68.3 1277.82 34.15 1258.1 0 1218.67 0 1198.95 34.15 1218.67 68.3 1258.1 68.3"/>
    <polygon points="1192.34 108.61 1212.06 74.45 1192.34 40.3 1152.9 40.3 1133.19 74.45 1152.9 108.61 1192.34 108.61"/>
    <polygon points="1258.1 79.79 1218.67 79.79 1198.95 113.94 1218.67 148.09 1258.1 148.09 1277.82 113.94 1258.1 79.79"/>
    <polygon points="1326.31 40.3 1286.87 40.3 1267.15 74.45 1286.87 108.61 1326.31 108.61 1346.02 74.45 1326.31 40.3"/>
    <polygon points="1326.31 119.27 1286.87 119.27 1267.15 153.42 1286.87 187.57 1326.31 187.57 1346.02 153.42 1326.31 119.27"/>
    <polygon points="1394.51 79.79 1355.07 79.79 1335.36 113.94 1355.07 148.09 1394.51 148.09 1414.23 113.94 1394.51 79.79"/>
    <polygon points="1393.42 0 1353.98 0 1334.27 34.15 1353.98 68.3 1393.42 68.3 1413.14 34.15 1393.42 0"/>
  </g>
</svg>